<?xml version="1.0" standalone="no"?>
<!DOCTYPE svg PUBLIC "-//W3C//DTD SVG 20010904//EN"
 "http://www.w3.org/TR/2001/REC-SVG-20010904/DTD/svg10.dtd">
<svg version="1.0" xmlns="http://www.w3.org/2000/svg"
 width="159.000000pt" height="161.000000pt" viewBox="0 0 159.000000 161.000000"
 preserveAspectRatio="xMidYMid meet">

<g transform="translate(0.000000,161.000000) scale(0.100000,-0.100000)"
fill="#000000" stroke="none">
<path d="M800 1531 c0 -10 -3 -33 -6 -50 -4 -20 -3 -31 5 -31 6 0 11 18 11 44
0 26 5 46 13 49 7 3 5 6 -5 6 -11 1 -18 -6 -18 -18z"/>
<path d="M845 1530 c4 -6 2 -17 -5 -25 -8 -10 -8 -15 0 -20 6 -4 9 -14 5 -22
-4 -13 -3 -14 10 -3 10 8 12 16 6 24 -6 7 -8 22 -4 34 3 13 1 22 -6 22 -7 0
-9 -5 -6 -10z"/>
<path d="M588 1513 c7 -3 16 -2 19 1 4 3 -2 6 -13 5 -11 0 -14 -3 -6 -6z"/>
<path d="M946 1498 c-19 -27 -20 -42 -3 -57 11 -8 13 -5 9 18 -2 17 2 34 13
44 9 10 12 17 6 17 -5 0 -17 -10 -25 -22z"/>
<path d="M1009 1508 c18 -24 6 -67 -22 -78 -16 -6 -17 -9 -5 -9 42 -2 64 64
31 90 -16 13 -17 12 -4 -3z"/>
<path d="M560 1499 c0 -9 5 -30 11 -48 8 -22 17 -31 32 -30 17 1 18 2 5 6 -10
2 -18 8 -19 11 -2 23 -8 42 -18 59 -9 15 -10 15 -11 2z"/>
<path d="M1101 1437 c-25 -40 -26 -53 -7 -60 10 -4 13 -1 10 8 -3 7 2 28 11
45 23 44 12 49 -14 7z"/>
<path d="M410 1432 c0 -4 17 -14 38 -21 20 -8 43 -16 51 -19 8 -3 12 0 10 7
-3 7 -8 12 -12 12 -4 -1 -23 6 -43 14 -42 17 -44 18 -44 7z"/>
<path d="M1206 1374 c-9 -8 -16 -25 -16 -37 0 -21 1 -21 13 2 15 31 40 46 61
38 23 -9 20 -34 -9 -62 -27 -28 -21 -33 13 -9 24 17 29 53 10 72 -17 17 -54
15 -72 -4z"/>
<path d="M290 1353 c0 -16 56 -80 64 -73 2 3 -11 23 -30 45 -19 22 -34 34 -34
28z"/>
<path d="M370 1299 c0 -5 5 -7 10 -4 6 3 10 8 10 11 0 2 -4 4 -10 4 -5 0 -10
-5 -10 -11z"/>
<path d="M1345 1268 c-2 -7 -5 -24 -7 -38 -2 -14 -9 -24 -16 -22 -8 1 -11 -2
-7 -8 9 -14 35 -13 37 3 1 6 2 23 2 37 1 17 6 25 18 24 10 -1 15 2 12 7 -8 13
-34 11 -39 -3z"/>
<path d="M216 1229 c29 -33 53 -42 70 -28 8 6 14 17 14 23 0 6 -5 3 -11 -7
-10 -17 -13 -17 -44 7 -41 31 -55 34 -29 5z"/>
<path d="M70 794 c-13 -14 -2 -42 25 -64 13 -11 19 -9 40 14 14 15 25 31 25
36 0 24 -73 36 -90 14z"/>
<path d="M1440 794 c-12 -14 -2 -42 23 -62 11 -10 20 -7 41 13 28 26 32 40 14
51 -20 13 -67 12 -78 -2z"/>
<path d="M458 724 c-42 -22 -37 -94 7 -94 12 0 28 -6 34 -14 8 -10 23 -13 45
-9 22 3 36 0 45 -11 10 -12 18 -13 33 -5 14 8 28 7 51 -2 17 -7 44 -12 59 -10
34 3 48 -22 48 -88 0 -47 -2 -51 -27 -57 -79 -17 -127 -44 -110 -60 14 -14 90
-23 182 -23 127 2 160 8 160 33 0 19 -32 34 -107 50 -25 6 -28 11 -28 49 0 23
3 51 6 62 7 26 70 48 97 33 14 -7 26 -6 42 2 13 7 35 10 49 6 13 -3 27 -2 30
3 3 4 29 11 58 15 58 8 68 17 68 62 0 57 -61 86 -124 60 -54 -23 -188 -46
-265 -46 -77 0 -234 27 -273 46 -34 17 -46 17 -80 -2z m119 -70 c-3 -3 -12 -4
-19 -1 -8 3 -5 6 6 6 11 1 17 -2 13 -5z m500 0 c-3 -3 -12 -4 -19 -1 -8 3 -5
6 6 6 11 1 17 -2 13 -5z m-450 -10 c-3 -3 -12 -4 -19 -1 -8 3 -5 6 6 6 11 1
17 -2 13 -5z m121 -11 c-10 -2 -28 -2 -40 0 -13 2 -5 4 17 4 22 1 32 -1 23 -4z"/>
<path d="M104 556 c-10 -8 -17 -16 -14 -19 3 -2 14 4 24 14 23 22 18 25 -10 5z"/>
<path d="M1470 535 c14 -8 30 -14 35 -14 6 0 -1 6 -15 14 -14 8 -29 14 -35 14
-5 0 1 -6 15 -14z"/>
<path d="M149 473 c-13 -15 -12 -15 9 -4 23 12 28 21 13 21 -5 0 -15 -7 -22
-17z"/>
<path d="M1435 480 c11 -5 27 -9 35 -9 9 0 8 4 -5 9 -11 5 -27 9 -35 9 -9 0
-8 -4 5 -9z"/>
<path d="M185 440 c-16 -17 -16 -20 -3 -15 9 4 19 13 22 21 7 19 2 18 -19 -6z"/>
<path d="M230 398 c0 -7 -3 -24 -7 -37 -3 -14 -2 -22 3 -18 10 6 18 67 9 67
-3 0 -5 -6 -5 -12z"/>
<path d="M1368 393 c12 -2 32 -2 45 0 12 2 2 4 -23 4 -25 0 -35 -2 -22 -4z"/>
<path d="M275 320 c-10 -11 -14 -20 -8 -20 5 0 18 9 28 20 10 11 14 20 8 20
-5 0 -18 -9 -28 -20z"/>
<path d="M1320 330 c8 -5 22 -9 30 -9 10 0 8 3 -5 9 -27 12 -43 12 -25 0z"/>
<path d="M343 278 c-20 -26 -26 -41 -15 -34 12 7 36 46 29 46 -3 0 -9 -6 -14
-12z"/>
<path d="M1230 270 c0 -4 13 -10 29 -12 17 -2 28 -1 26 3 -7 10 -55 18 -55 9z"/>
<path d="M411 229 c-7 -12 -10 -23 -8 -26 3 -3 11 5 17 17 15 28 8 35 -9 9z"/>
<path d="M1160 234 c0 -6 7 -19 16 -30 14 -18 14 -18 3 6 -14 31 -19 36 -19
24z"/>
<path d="M472 195 c-17 -37 -14 -45 4 -12 9 16 14 31 11 33 -2 2 -9 -7 -15
-21z"/>
<path d="M1105 209 c-4 -6 -5 -12 -2 -15 2 -3 7 2 10 11 7 17 1 20 -8 4z"/>
<path d="M562 150 c0 -19 2 -27 5 -17 2 9 2 25 0 35 -3 9 -5 1 -5 -18z"/>
<path d="M1033 160 c-1 -10 6 -25 15 -32 15 -12 16 -11 4 4 -8 9 -11 22 -8 27
4 5 3 12 -2 15 -4 2 -8 -4 -9 -14z"/>
<path d="M1110 171 c0 -6 4 -13 10 -16 6 -3 7 1 4 9 -7 18 -14 21 -14 7z"/>
<path d="M1000 163 c0 -4 5 -15 10 -23 8 -13 10 -13 10 2 0 9 -4 20 -10 23 -5
3 -10 3 -10 -2z"/>
<path d="M626 145 c-3 -9 -6 -24 -5 -33 0 -9 5 -4 10 12 9 32 6 48 -5 21z"/>
<path d="M945 126 c10 -14 19 -26 22 -26 7 0 -17 39 -28 46 -6 3 -3 -5 6 -20z"/>
<path d="M791 135 c0 -5 6 -21 14 -35 8 -14 14 -20 14 -15 0 6 -6 21 -14 35
-8 14 -14 21 -14 15z"/>
<path d="M711 104 c0 -11 3 -14 6 -6 3 7 2 16 -1 19 -3 4 -6 -2 -5 -13z"/>
</g>
</svg>
